Coordinates
version=1
nRows=17
nColumns=36
inDegrees=yes

Units are S.I. units (second, meters, Newtons, ...)
If the header above contains a line with 'inDegrees', this indicates whether rotational values are in degrees (yes) or radians (no).

endheader
time	pelvis_tilt	pelvis_list	pelvis_rotation	pelvis_tx	pelvis_ty	pelvis_tz	hip_flexion_r	hip_adduction_r	hip_rotation_r	knee_angle_r	knee_angle_r_beta	ankle_angle_r	subtalar_angle_r	mtp_angle_r	hip_flexion_l	hip_adduction_l	hip_rotation_l	knee_angle_l	knee_angle_l_beta	ankle_angle_l	subtalar_angle_l	mtp_angle_l	lumbar_extension	lumbar_bending	lumbar_rotation	arm_flex_r	arm_add_r	arm_rot_r	elbow_flex_r	pro_sup_r	arm_flex_l	arm_add_l	arm_rot_l	elbow_flex_l	pro_sup_l
      4.57000000	     -2.53934855	      0.81291921	      1.68103331	     -0.21257938	      1.04872791	     -0.61781307	      8.58049253	     -4.83351852	     -9.05747274	     11.19084921	      0.19531716	      3.47227363	      2.92121571	     -7.49999959	      7.24606348	     -3.18813983	     -5.52557469	      8.64668920	      0.15091320	      2.66671095	      1.19152483	     -7.49999959	    -11.50251539	     -2.09719622	     -2.02042404	    -17.02886183	    -13.56137731	    -14.51944649	     85.57540389	    106.85121733	    -18.93055824	     -2.20086359	    -23.47848276	     89.07111687	     89.57296897
      4.58000000	     -2.60773692	      0.78833149	      1.62136525	     -0.21051632	      1.04894988	     -0.61786113	      8.04884572	     -4.71366086	     -9.11128968	     10.24043035	      0.17872923	      3.22926655	      3.09438718	     -7.49999960	      6.66144326	     -3.16583699	     -5.80443567	      7.60916709	      0.13280502	      2.35246356	      1.50840117	     -7.49999960	    -10.84938519	     -2.02884149	     -1.86903510	    -16.68154945	    -13.37125224	    -14.42881820	     84.17276602	    107.73359722	    -18.32272655	     -2.53928208	    -22.76864967	     89.10895034	     89.11738010
      4.59000000	     -2.64205652	      0.77400497	      1.60762771	     -0.20878014	      1.04893786	     -0.61801148	      7.60098902	     -4.63251184	     -9.22657373	      9.50993952	      0.16597976	      3.10093879	      3.27658861	     -7.49999962	      6.18147178	     -3.15094520	     -6.09940472	      6.79782082	      0.11864436	      2.19128820	      1.96955280	     -7.49999962	    -10.30343932	     -1.97498488	     -1.82313521	    -16.22136179	    -13.21661779	    -14.22190189	     82.76170777	    108.00911566	    -17.66323463	     -2.84806268	    -22.09932811	     89.17987266	     88.65826325
      4.60000000	     -2.65119381	      0.75724115	      1.63290779	     -0.20731821	      1.04875564	     -0.61819908	      7.22580133	     -4.56824763	     -9.34332475	      8.96008518	      0.15638299	      3.03033841	      3.37376853	     -7.49999963	      5.81571989	     -3.15496104	     -6.33605072	      6.22715057	      0.10868428	      2.10270555	      2.40178515	     -7.49999963	     -9.81975596	     -1.91340477	     -1.79582404	    -15.67949432	    -13.10823261	    -14.04632165	     81.25864816	    108.09327085	    -16.91956224	     -3.24438244	    -21.39587792	     89.29620214	     87.94775229
      4.61000000	     -2.42386947	      0.73061293	      1.59784493	     -0.20588362	      1.04872383	     -0.61827589	      6.70822866	     -4.51983869	     -9.58107691	      8.60728258	      0.15022542	      3.16411179	      3.87833754	     -7.49999965	      5.36476441	     -3.26487963	     -7.28131731	      6.01458903	      0.10497438	      2.63688126	      3.95935158	     -7.49999965	     -9.65778834	     -1.84226435	     -2.13428493	    -14.72426442	    -13.17777285	    -13.19615033	     79.63276047	    107.52712337	    -16.35403945	     -3.50162140	    -21.21131904	     89.35043730	     88.53181708
      4.62000000	     -2.23364204	      0.74386280	      1.55697827	     -0.20478724	      1.04862798	     -0.61835132	      6.32918028	     -4.51128595	     -9.56647912	      8.40294930	      0.14665913	      3.29039620	      3.95819613	     -7.49999969	      4.98549690	     -3.29068323	     -7.74694413	      5.82442877	      0.10165546	      2.86804430	      4.73155833	     -7.49999969	     -9.51692403	     -1.82687308	     -2.32034572	    -13.82581194	    -13.22379330	    -12.51627364	     77.91518049	    107.29121192	    -15.63278423	     -3.76700853	    -20.97593604	     89.22068836	     90.70154873
      4.63000000	     -1.92021740	      0.73981903	      1.58497879	     -0.20396223	      1.04868040	     -0.61851202	      5.88621343	     -4.50718497	     -9.60378112	      8.30583309	      0.14496413	      3.21311695	      3.83876859	     -7.49999971	      4.49530645	     -3.29372231	     -7.69980488	      5.61457721	      0.09799286	      2.84409403	      4.67848908	     -7.49999971	     -9.58917330	     -1.73956117	     -2.23771856	    -13.26859299	    -13.11313187	    -12.29405215	     76.80289478	    104.90960262	    -14.62326483	     -4.27590599	    -20.05422942	     89.29092944	     88.90114600
      4.64000000	     -1.72595310	      0.77399668	      1.66410478	     -0.20342833	      1.04859684	     -0.61884457	      5.68798942	     -4.59921524	     -9.81188264	      8.45203426	      0.14751583	      3.50086177	      4.09041568	     -7.49999975	      4.28848612	     -3.26263716	     -7.70221464	      5.67352292	      0.09902166	      2.95870595	      4.83069973	     -7.49999975	     -9.57181462	     -1.72052235	     -2.46074614	    -12.40381041	    -13.08044137	    -11.98046059	     75.04850315	    107.53555934	    -13.74861304	     -4.70364999	    -19.64146935	     88.81253141	     93.27300842
      4.65000000	     -1.39427354	      0.79459675	      1.74417774	     -0.20305769	      1.04871470	     -0.61916843	      5.33989074	     -4.64278526	     -9.82028623	      8.56617708	      0.14950799	      3.61975522	      3.99931443	     -7.49999976	      3.99357383	     -3.25245408	     -7.63013110	      5.82357034	      0.10164048	      3.09886043	      4.82067978	     -7.49999976	     -9.76477836	     -1.67719283	     -2.52278601	    -11.72743730	    -12.98864128	    -11.82957750	     73.79661941	    106.88092581	    -12.74528290	     -5.16218816	    -18.87794216	     88.90573123	     92.79828529
      4.66000000	     -1.03346405	      0.80656767	      1.78255311	     -0.20277559	      1.04890742	     -0.61945137	      5.00101356	     -4.66724303	     -9.72700620	      8.73167495	      0.15239648	      3.72661802	      3.80925515	     -7.49999977	      3.69004496	     -3.24637386	     -7.52532611	      6.02128090	      0.10509118	      3.23311934	      4.75863499	     -7.49999977	    -10.01167142	     -1.63803222	     -2.53543260	    -11.11985286	    -12.96039343	    -11.52446089	     72.72139029	    105.19195251	    -11.75097133	     -5.58502579	    -18.12520453	     89.12722066	     91.63802880
      4.67000000	     -0.73861084	      0.81397750	      1.77976659	     -0.20260124	      1.04905350	     -0.61956628	      4.77686161	     -4.66713986	     -9.51435322	      8.94625567	      0.15614162	      3.80971435	      3.54055555	     -7.49999977	      3.45369879	     -3.23484246	     -7.33855701	      6.21104111	      0.10840312	      3.33583994	      4.49703583	     -7.49999977	    -10.22151401	     -1.60708838	     -2.54808528	    -10.54785054	    -12.94950006	    -11.21365722	     71.77674070	    104.34068171	    -10.81652905	     -6.03489827	    -17.45329629	     89.38533518	     91.04058250
      4.68000000	     -0.64030945	      0.80782975	      1.83825093	     -0.20267627	      1.04897616	     -0.61976879	      4.79035151	     -4.67374546	     -9.40192227	      9.20366166	      0.16063420	      3.94099361	      3.26338744	     -7.49999978	      3.51859865	     -3.22810433	     -7.12165049	      6.52005126	      0.11379636	      3.45764070	      4.19629795	     -7.49999978	    -10.26220911	     -1.57659976	     -2.53345222	    -10.18228376	    -12.91022408	    -11.09231831	     71.07117717	    103.87421293	     -9.91546125	     -6.43305515	    -16.81747161	     89.80402851	     90.61832436
      4.69000000	     -0.34857039	      0.79441546	      1.92115401	     -0.20283285	      1.04922910	     -0.62005314	      4.55514649	     -4.66372540	     -9.32397766	      9.37070109	      0.16354959	      3.91897023	      3.05693557	     -7.49999978	      3.31251169	     -3.21552683	     -6.76321907	      6.69158610	      0.11679021	      3.48726924	      3.84945085	     -7.49999978	    -10.52327520	     -1.50664092	     -2.66107013	     -9.70600794	    -12.82358870	    -10.96354913	     70.51598584	    103.14609130	     -9.07225731	     -6.98634403	    -16.01066708	     90.15871562	     90.03426498
      4.70000000	     -0.25445508	      0.77749074	      2.02820149	     -0.20313196	      1.04926198	     -0.62043812	      4.55595982	     -4.67488492	     -9.35113487	      9.57059999	      0.16703848	      3.93658899	      2.86828756	     -7.49999980	      3.36149390	     -3.18763520	     -6.33641409	      6.91566188	      0.12070107	      3.41079029	      3.19086234	     -7.49999980	    -10.59032676	     -1.43739590	     -2.72248865	     -9.41756338	    -12.77718711	    -11.19829735	     69.87215296	    107.15074822	     -8.16721494	     -7.46017371	    -15.47591883	     89.85169762	     95.64682823
      4.71000000	     -0.14071143	      0.79386384	      2.00303496	     -0.20333447	      1.04934816	     -0.62053565	      4.52187619	     -4.68962906	     -9.15923783	      9.71495924	      0.16955803	      3.95926014	      2.71831143	     -7.49999981	      3.33304939	     -3.16382420	     -6.20578761	      7.08828491	      0.12371391	      3.44842778	      3.03184697	     -7.49999981	    -10.68078990	     -1.44451354	     -2.63457776	     -9.26782747	    -12.79823725	    -11.14388231	     69.73351176	    106.50739494	     -7.32228943	     -7.91983081	    -14.80157317	     90.34204482	     94.99615730
      4.72000000	      0.04805161	      0.81071399	      1.91333845	     -0.20349994	      1.04953008	     -0.62054684	      4.38569002	     -4.69678457	     -9.01111455	      9.79993786	      0.17104118	      3.95395124	      2.56532475	     -7.49999981	      3.19129114	     -3.14351092	     -6.25343122	      7.21818596	      0.12598111	      3.44365128	      2.78034517	     -7.49999981	    -10.86970201	     -1.44863847	     -2.45009140	     -9.16273430	    -12.85579966	    -11.06478274	     69.71397071	    106.09061113	     -6.53988914	     -8.41634780	    -13.94406253	     90.94288248	     94.40542688
      4.73000000	     -0.01455797	      0.80780282	      1.88368194	     -0.20389400	      1.04940053	     -0.62066331	      4.52694748	     -4.70525775	     -8.95021289	      9.87645896	      0.17237673	      3.96450601	      2.47710419	     -7.49999981	      3.39587705	     -3.15509912	     -6.28203668	      7.45514926	      0.13011690	      3.49179435	      2.69266537	     -7.49999981	    -10.78917166	     -1.45880608	     -2.26634637	     -9.18311121	    -12.96915691	    -11.05314543	     69.75684678	    105.63576034	     -5.77331369	     -8.74134986	    -13.35766475	     91.59758591	     93.92660111
